<svg width="21" height="22" viewBox="0 0 21 22" fill="none" xmlns="http://www.w3.org/2000/svg">
    <path
        d="M17.0938 21.1562H4.59375C3.55775 21.1562 2.56418 20.7447 1.83161 20.0121C1.09905 19.2796 0.6875 18.286 0.6875 17.25V6.3125C0.6875 5.2765 1.09905 4.28293 1.83161 3.55036C2.56418 2.8178 3.55775 2.40625 4.59375 2.40625H17.0938C18.1298 2.40625 19.1233 2.8178 19.8559 3.55036C20.5884 4.28293 21 5.2765 21 6.3125V17.25C21 18.286 20.5884 19.2796 19.8559 20.0121C19.1233 20.7447 18.1298 21.1562 17.0938 21.1562ZM4.59375 3.96875C3.97215 3.96875 3.37601 4.21568 2.93647 4.65522C2.49693 5.09476 2.25 5.6909 2.25 6.3125V17.25C2.25 17.8716 2.49693 18.4677 2.93647 18.9073C3.37601 19.3468 3.97215 19.5938 4.59375 19.5938H17.0938C17.7154 19.5938 18.3115 19.3468 18.751 18.9073C19.1906 18.4677 19.4375 17.8716 19.4375 17.25V6.3125C19.4375 5.6909 19.1906 5.09476 18.751 4.65522C18.3115 4.21568 17.7154 3.96875 17.0938 3.96875H4.59375Z"
        fill="var(--orange)" />
    <path
        d="M17.0938 18.0312H13.9688C13.7615 18.0312 13.5628 17.9489 13.4163 17.8024C13.2698 17.6559 13.1875 17.4572 13.1875 17.25V14.125C13.1875 13.9178 13.2698 13.7191 13.4163 13.5726C13.5628 13.4261 13.7615 13.3438 13.9688 13.3438H17.0938C17.301 13.3438 17.4997 13.4261 17.6462 13.5726C17.7927 13.7191 17.875 13.9178 17.875 14.125V17.25C17.875 17.4572 17.7927 17.6559 17.6462 17.8024C17.4997 17.9489 17.301 18.0312 17.0938 18.0312ZM14.75 16.4688H16.3125V14.9062H14.75V16.4688Z"
        fill="var(--orange)" />
    <path
        d="M20.2188 8.65625H1.46875C1.26155 8.65625 1.06284 8.57394 0.916323 8.42743C0.76981 8.28091 0.6875 8.0822 0.6875 7.875C0.6875 7.6678 0.76981 7.46909 0.916323 7.32257C1.06284 7.17606 1.26155 7.09375 1.46875 7.09375H20.2188C20.426 7.09375 20.6247 7.17606 20.7712 7.32257C20.9177 7.46909 21 7.6678 21 7.875C21 8.0822 20.9177 8.28091 20.7712 8.42743C20.6247 8.57394 20.426 8.65625 20.2188 8.65625Z"
        fill="var(--orange)" />
    <path
        d="M6.9375 5.53125C6.7303 5.53125 6.53159 5.44894 6.38507 5.30243C6.23856 5.15591 6.15625 4.9572 6.15625 4.75V1.625C6.15625 1.4178 6.23856 1.21909 6.38507 1.07257C6.53159 0.92606 6.7303 0.84375 6.9375 0.84375C7.1447 0.84375 7.34341 0.92606 7.48993 1.07257C7.63644 1.21909 7.71875 1.4178 7.71875 1.625V4.75C7.71875 4.9572 7.63644 5.15591 7.48993 5.30243C7.34341 5.44894 7.1447 5.53125 6.9375 5.53125Z"
        fill="var(--orange)" />
    <path
        d="M14.75 5.53125C14.5428 5.53125 14.3441 5.44894 14.1976 5.30243C14.0511 5.15591 13.9688 4.9572 13.9688 4.75V1.625C13.9688 1.4178 14.0511 1.21909 14.1976 1.07257C14.3441 0.92606 14.5428 0.84375 14.75 0.84375C14.9572 0.84375 15.1559 0.92606 15.3024 1.07257C15.4489 1.21909 15.5312 1.4178 15.5312 1.625V4.75C15.5312 4.9572 15.4489 5.15591 15.3024 5.30243C15.1559 5.44894 14.9572 5.53125 14.75 5.53125Z"
        fill="var(--orange)" />
</svg>