<svg width="16" height="34" viewBox="0 0 16 34" fill="none" xmlns="http://www.w3.org/2000/svg">
    <path
        d="M2.02771 1.05077C1.9476 0.948225 1.83747 0.873242 1.7127 0.836284C1.58793 0.799326 1.45474 0.802234 1.3317 0.844604C1.20866 0.886974 1.10191 0.966691 1.02635 1.07264C0.950791 1.17858 0.910184 1.30547 0.910195 1.4356V30.9527C0.909945 31.5304 1.13403 32.0857 1.53519 32.5014V32.5648H1.59862C2.01431 32.966 2.56954 33.1901 3.14724 33.1898H3.69266C4.27036 33.1901 4.82559 32.966 5.24128 32.5648H5.30473V32.5014C5.7059 32.0857 5.92998 31.5304 5.92973 30.9527V11.9492C5.92973 9.02968 5.64722 5.68349 3.55195 3.00168L2.02771 1.05077ZM4.67973 23.0538H2.16019V21.3518H4.67973V23.0538ZM4.67973 20.1017H2.16019V3.25071L2.56691 3.77133C4.42376 6.14789 4.67973 9.10626 4.67973 11.9492V20.1017Z"
        fill="#A3A9BA" />
    <path
        d="M14.4648 1.49316C14.2991 1.49316 14.1401 1.55901 14.0229 1.67622C13.9057 1.79343 13.8398 1.9524 13.8398 2.11816V7.33507C13.8394 7.70275 13.6932 8.05524 13.4332 8.31523C13.1732 8.57521 12.8207 8.72146 12.453 8.72187H11.029C10.6613 8.72146 10.3088 8.57521 10.0488 8.31523C9.78884 8.05524 9.6426 7.70275 9.64219 7.33507V2.11816C9.64219 1.9524 9.57634 1.79343 9.45913 1.67622C9.34192 1.55901 9.18295 1.49316 9.01719 1.49316C8.85143 1.49316 8.69246 1.55901 8.57525 1.67622C8.45804 1.79343 8.39219 1.9524 8.39219 2.11816V7.33507C8.39298 8.03415 8.67104 8.70437 9.16536 9.1987C9.65969 9.69302 10.3299 9.97108 11.029 9.97187H11.116V14.631L10.425 15.6094C9.64628 16.7081 9.22904 18.0221 9.23125 19.3688V30.9525C9.23101 31.5303 9.45509 32.0855 9.85625 32.5012V32.5646H9.91969C10.3354 32.9658 10.8906 33.1899 11.4683 33.1896H12.0137C12.5914 33.1899 13.1467 32.9658 13.5624 32.5646H13.6258V32.5012C14.027 32.0855 14.251 31.5303 14.2508 30.9525V19.3688C14.253 18.0221 13.8358 16.7081 13.057 15.6094L12.366 14.631V9.97189H12.453C13.1521 9.9711 13.8223 9.69304 14.3166 9.19872C14.811 8.70439 15.089 8.03417 15.0898 7.33509V2.11816C15.0898 1.95241 15.024 1.79344 14.9068 1.67623C14.7896 1.55902 14.6306 1.49317 14.4648 1.49316ZM10.4813 23.0536V21.3516H13.0008V23.0536L10.4813 23.0536ZM13.0008 20.1016H10.4813V19.3688C10.4794 18.2804 10.8166 17.2184 11.446 16.3305L11.741 15.9128L12.036 16.3305C12.6654 17.2184 13.0026 18.2804 13.0008 19.3688V20.1016Z"
        fill="#A3A9BA" />
    <path
        d="M12.6031 6.35752C12.7689 6.35752 12.9279 6.29167 13.0451 6.17446C13.1623 6.05725 13.2281 5.89828 13.2281 5.73252V2.11816C13.2281 1.9524 13.1623 1.79343 13.0451 1.67622C12.9279 1.55901 12.7689 1.49316 12.6031 1.49316C12.4374 1.49316 12.2784 1.55901 12.1612 1.67622C12.044 1.79343 11.9781 1.9524 11.9781 2.11816V5.73252C11.9781 5.89828 12.044 6.05725 12.1612 6.17446C12.2784 6.29167 12.4374 6.35752 12.6031 6.35752Z"
        fill="#A3A9BA" />
    <path
        d="M10.8788 6.35752C11.0446 6.35752 11.2036 6.29167 11.3208 6.17446C11.438 6.05725 11.5038 5.89828 11.5038 5.73252V2.11816C11.5038 1.9524 11.438 1.79343 11.3208 1.67622C11.2036 1.55901 11.0446 1.49316 10.8788 1.49316C10.7131 1.49316 10.5541 1.55901 10.4369 1.67622C10.3197 1.79343 10.2538 1.9524 10.2538 2.11816V5.73252C10.2538 5.89828 10.3197 6.05725 10.4369 6.17446C10.5541 6.29167 10.7131 6.35752 10.8788 6.35752Z"
        fill="#A3A9BA" />
</svg>
    