<svg width="287" height="249" viewBox="0 0 287 249" fill="none" xmlns="http://www.w3.org/2000/svg">
<path d="M47.0502 179.142V223H44.1774V185.143L27.3236 223H25.0254L8.1077 185.143V223H5.23489V179.142H8.29922L26.1745 219.233L44.0497 179.142H47.0502ZM88.8216 203.337C88.8216 204.869 88.7791 206.019 88.694 206.785H58.7529C58.838 209.891 59.519 212.509 60.7958 214.637C62.0726 216.765 63.7537 218.361 65.8392 219.425C67.9246 220.489 70.2016 221.021 72.6701 221.021C76.0749 221.021 78.9264 220.191 81.2247 218.531C83.5229 216.829 84.97 214.531 85.5658 211.636H88.5663C87.8853 215.169 86.1404 218.042 83.3314 220.255C80.5224 222.425 76.9686 223.511 72.6701 223.511C69.4355 223.511 66.5414 222.787 63.9878 221.34C61.4342 219.893 59.4339 217.829 57.9868 215.148C56.5398 212.424 55.8163 209.253 55.8163 205.635C55.8163 202.018 56.5185 198.868 57.923 196.187C59.37 193.506 61.3704 191.463 63.924 190.058C66.4776 188.611 69.3929 187.888 72.6701 187.888C75.9898 187.888 78.8626 188.611 81.2885 190.058C83.757 191.463 85.6296 193.357 86.9064 195.74C88.1832 198.081 88.8216 200.613 88.8216 203.337ZM85.9488 204.423C86.0765 201.358 85.5232 198.762 84.289 196.634C83.0973 194.506 81.4587 192.931 79.3733 191.91C77.2878 190.846 75.0322 190.314 72.6062 190.314C70.1803 190.314 67.9246 190.846 65.8392 191.91C63.7963 192.931 62.1152 194.506 60.7958 196.634C59.519 198.762 58.838 201.358 58.7529 204.423H85.9488ZM95.7164 205.635C95.7164 202.06 96.4186 198.932 97.8231 196.251C99.2702 193.57 101.249 191.506 103.76 190.058C106.314 188.611 109.208 187.888 112.443 187.888C116.103 187.888 119.21 188.782 121.763 190.569C124.317 192.357 126.104 194.634 127.126 197.4V188.335H129.999V223H127.126V213.871C126.104 216.68 124.296 218.999 121.699 220.829C119.146 222.617 116.06 223.511 112.443 223.511C109.208 223.511 106.314 222.787 103.76 221.34C101.249 219.851 99.2702 217.765 97.8231 215.084C96.4186 212.36 95.7164 209.211 95.7164 205.635ZM127.126 205.635C127.126 202.614 126.487 199.954 125.211 197.655C123.976 195.315 122.274 193.527 120.103 192.293C117.933 191.016 115.507 190.378 112.826 190.378C110.017 190.378 107.548 190.995 105.42 192.229C103.292 193.421 101.632 195.166 100.441 197.464C99.2489 199.762 98.653 202.486 98.653 205.635C98.653 208.785 99.2489 211.509 100.441 213.807C101.632 216.105 103.292 217.872 105.42 219.106C107.591 220.34 110.059 220.957 112.826 220.957C115.507 220.957 117.933 220.34 120.103 219.106C122.316 217.829 124.04 216.041 125.274 213.743C126.509 211.402 127.126 208.7 127.126 205.635ZM143.332 175.758V223H140.459V175.758H143.332ZM195.678 179.142V223H192.805V185.143L175.952 223H173.653L156.736 185.143V223H153.863V179.142H156.927L174.802 219.233L192.678 179.142H195.678ZM204.444 205.635C204.444 202.06 205.146 198.932 206.551 196.251C207.998 193.57 209.977 191.506 212.488 190.058C215.042 188.611 217.936 187.888 221.17 187.888C224.83 187.888 227.937 188.782 230.491 190.569C233.045 192.357 234.832 194.634 235.854 197.4V188.335H238.726V223H235.854V213.871C234.832 216.68 233.023 218.999 230.427 220.829C227.874 222.617 224.788 223.511 221.17 223.511C217.936 223.511 215.042 222.787 212.488 221.34C209.977 219.851 207.998 217.765 206.551 215.084C205.146 212.36 204.444 209.211 204.444 205.635ZM235.854 205.635C235.854 202.614 235.215 199.954 233.938 197.655C232.704 195.315 231.002 193.527 228.831 192.293C226.661 191.016 224.235 190.378 221.553 190.378C218.744 190.378 216.276 190.995 214.148 192.229C212.02 193.421 210.36 195.166 209.168 197.464C207.977 199.762 207.381 202.486 207.381 205.635C207.381 208.785 207.977 211.509 209.168 213.807C210.36 216.105 212.02 217.872 214.148 219.106C216.318 220.34 218.787 220.957 221.553 220.957C224.235 220.957 226.661 220.34 228.831 219.106C231.044 217.829 232.768 216.041 234.002 213.743C235.236 211.402 235.854 208.7 235.854 205.635ZM252.059 197.464C253.038 194.655 254.805 192.357 257.358 190.569C259.954 188.782 263.083 187.888 266.743 187.888C269.977 187.888 272.85 188.611 275.361 190.058C277.915 191.506 279.894 193.57 281.298 196.251C282.745 198.932 283.469 202.06 283.469 205.635C283.469 209.211 282.745 212.36 281.298 215.084C279.894 217.765 277.915 219.851 275.361 221.34C272.85 222.787 269.977 223.511 266.743 223.511C263.125 223.511 260.018 222.617 257.422 220.829C254.868 218.999 253.081 216.701 252.059 213.935V239.343H249.187V188.335H252.059V197.464ZM280.532 205.635C280.532 202.486 279.936 199.762 278.745 197.464C277.553 195.166 275.872 193.421 273.701 192.229C271.573 190.995 269.105 190.378 266.296 190.378C263.615 190.378 261.189 191.016 259.018 192.293C256.847 193.527 255.145 195.315 253.911 197.655C252.677 199.954 252.059 202.614 252.059 205.635C252.059 208.7 252.677 211.402 253.911 213.743C255.145 216.041 256.847 217.829 259.018 219.106C261.189 220.34 263.615 220.957 266.296 220.957C269.105 220.957 271.573 220.34 273.701 219.106C275.872 217.872 277.553 216.105 278.745 213.807C279.936 211.509 280.532 208.785 280.532 205.635Z" fill="#6F7481"/>
<g filter="url(#filter0_d_14152_9412)">
<circle cx="141.336" cy="76.3365" r="76.3365" fill="url(#paint0_linear_14152_9412)"/>
</g>
<path d="M125.027 89.6427C123.016 94.7141 121.482 99.9808 120.447 105.368C119.722 109.39 119.149 116.026 122.47 118.922C123.135 119.595 123.959 120.069 124.856 120.295C125.753 120.521 126.69 120.491 127.573 120.208C128.455 119.926 129.25 119.4 129.876 118.686C130.502 117.973 130.936 117.096 131.133 116.147C131.629 112.688 130.675 97.2839 130.561 93.3023C130.561 90.6881 130.561 88.0336 130.561 85.2585C130.561 70.3776 130.065 45.6037 130.026 30.7228C129.995 30.272 129.843 29.8392 129.587 29.4767C129.33 29.1142 128.981 28.837 128.58 28.6765C128.18 28.5159 127.743 28.4787 127.324 28.5704C126.904 28.6622 126.517 28.8787 126.21 29.1939C116.287 41.8628 112.051 58.353 118.195 73.9578C119.233 76.7851 120.92 79.2969 123.104 81.2691C125.289 83.2413 127.903 84.6117 130.713 85.2585" stroke="#6F7481" stroke-width="4.30892" stroke-linecap="round" stroke-linejoin="round"/>
<path d="M151.729 67.7586C151.271 76.4458 149.515 84.9718 148.37 93.5786C147.34 99.0885 146.842 104.694 146.882 110.309C147.187 114.613 148.676 120.404 153.713 120.444C155.094 120.488 156.445 120.019 157.53 119.118C158.744 117.826 159.579 116.191 159.934 114.412C160.541 111.781 160.759 109.068 160.583 106.368C160.583 102.064 159.629 97.8821 159.056 93.6591C157.911 85.0524 156.156 76.5263 155.698 67.8391M150.278 30.1134L150.278 50.2228M157.301 50.102L157.301 29.9927M144.058 30.1134L144.058 57.6636C144.068 60.359 145.088 62.9413 146.897 64.8472C148.705 66.7532 151.156 67.8285 153.713 67.8391C156.271 67.8285 158.721 66.7532 160.53 64.8472C162.338 62.9413 163.359 60.359 163.369 57.6636L163.369 30.1134" stroke="#6F7481" stroke-width="4.30892" stroke-linecap="round" stroke-linejoin="round"/>
<defs>
<filter id="filter0_d_14152_9412" x="61" y="0" width="160.673" height="160.673" filterUnits="userSpaceOnUse" color-interpolation-filters="sRGB">
<feFlood flood-opacity="0" result="BackgroundImageFix"/>
<feColorMatrix in="SourceAlpha" type="matrix" values="0 0 0 0 0 0 0 0 0 0 0 0 0 0 0 0 0 0 127 0" result="hardAlpha"/>
<feOffset dy="4"/>
<feGaussianBlur stdDeviation="2"/>
<feComposite in2="hardAlpha" operator="out"/>
<feColorMatrix type="matrix" values="0 0 0 0 0 0 0 0 0 0 0 0 0 0 0 0 0 0 0.25 0"/>
<feBlend mode="normal" in2="BackgroundImageFix" result="effect1_dropShadow_14152_9412"/>
<feBlend mode="normal" in="SourceGraphic" in2="effect1_dropShadow_14152_9412" result="shape"/>
</filter>
<linearGradient id="paint0_linear_14152_9412" x1="141.336" y1="0" x2="141.336" y2="152.673" gradientUnits="userSpaceOnUse">
<stop stop-color="#F8F3F3"/>
<stop offset="1" stop-color="#E8EAEF"/>
</linearGradient>
</defs>
</svg>
