<svg width="32" height="32" viewBox="0 0 32 32" fill="none" xmlns="http://www.w3.org/2000/svg">
    <path d="M29.875 18.7186H28.2813C28.3909 17.4045 28.2401 16.0816 27.8375 14.8259C27.4348 13.5701 26.7882 12.4062 25.9348 11.4009C24.9214 8.33707 19.5166 4.72276 16.0882 4.52359L14.435 2.87035C14.609 2.57749 14.7117 2.24781 14.7347 1.90794C14.7578 1.56806 14.7005 1.22754 14.5676 0.913897C14.4346 0.600251 14.2298 0.32228 13.9696 0.102454C13.7093 -0.117373 13.401 -0.272887 13.0696 -0.351519C12.7381 -0.43015 12.3928 -0.429693 12.0616 -0.350185C11.7303 -0.270676 11.4225 -0.114346 11.1628 0.106169C10.9032 0.326683 10.699 0.605195 10.5669 0.919192C10.4348 1.23319 10.3785 1.57386 10.4024 1.91367C10.0926 1.89394 9.7822 1.94057 9.49188 2.05044C9.20157 2.1603 8.93804 2.33087 8.71893 2.55074C6.92676 4.43031 9.27722 7.1858 11.3705 5.93481L13.0444 7.60867C13.0532 7.76528 13.0692 7.92997 13.0926 8.10273C11.7388 8.14458 10.4099 8.47767 9.19647 9.07933C8.67753 8.92356 8.14293 8.82573 7.60246 8.78762L5.93502 7.12034C6.10904 6.82749 6.21171 6.49781 6.23473 6.15794C6.25776 5.81806 6.20049 5.47754 6.06757 5.1639C5.93464 4.85025 5.72979 4.57228 5.46956 4.35245C5.20933 4.13263 4.90103 3.97711 4.56957 3.89848C4.23812 3.81985 3.89282 3.82031 3.56158 3.89982C3.23034 3.97932 2.92245 4.13565 2.6628 4.35617C2.40316 4.57668 2.19904 4.85519 2.06694 5.16919C1.93485 5.48319 1.87848 5.82386 1.90241 6.16367C1.59262 6.14389 1.28218 6.19049 0.991854 6.30036C0.701529 6.41023 0.438011 6.58083 0.218931 6.80075C-1.57324 8.68031 0.777221 11.4358 2.87051 10.1848L4.53773 11.852C4.57584 12.3932 4.67384 12.9285 4.82992 13.4481C3.8352 15.3934 3.57815 17.6329 4.10625 19.7529C3.81578 19.4278 3.45997 19.1676 3.06206 18.9894C2.66415 18.8111 2.23312 18.7189 1.79712 18.7186H0.125006C-0.0158906 18.7186 -0.151016 18.7746 -0.250645 18.8742C-0.350274 18.9738 -0.406244 19.1089 -0.406244 19.2498V20.922C-0.40611 21.6757 -0.130709 22.4035 0.368212 22.9686C-0.00961316 22.9261 -0.397479 23.0636 -0.406244 23.4998C-0.404651 24.6753 0.0294082 25.8091 0.813201 26.685C1.59699 27.561 2.67571 28.118 3.84376 28.2498V28.8123C3.84422 29.2349 4.01228 29.64 4.31107 29.9388C4.60985 30.2376 5.01496 30.4056 5.43751 30.4061H24.5625C24.9851 30.4056 25.3902 30.2376 25.6889 29.9388C25.9877 29.64 26.1558 29.2349 26.1563 28.8123V28.2498C27.3243 28.118 28.403 27.561 29.1868 26.685C29.9706 25.8091 30.4047 24.6753 30.4063 23.4998C30.3974 23.0642 30.0099 22.9258 29.6318 22.9686C30.1307 22.4035 30.4061 21.6757 30.4063 20.922V19.2498C30.4063 19.1089 30.3503 18.9738 30.2507 18.8742C30.151 18.7746 30.0159 18.7186 29.875 18.7186ZM27.2188 18.8808C26.5706 19.1011 26.0114 19.5257 25.625 20.0908C25.3731 19.7211 25.0451 19.4094 24.6629 19.1767C24.2808 18.944 23.8534 18.7956 23.4093 18.7414C23.1706 18.6987 21.6451 18.7256 21.375 18.7186C21.2341 18.7186 21.099 18.7746 20.9994 18.8742C20.8997 18.9738 20.8438 19.1089 20.8438 19.2498V20.922C20.8484 21.6742 21.1216 22.4 21.6141 22.9686H8.38483C8.68601 22.5988 8.90955 22.172 9.0421 21.7138C9.17464 21.2557 9.21347 20.7755 9.15626 20.302C10.6261 21.5794 11.8936 22.1369 13.4631 21.8107C13.5074 21.802 13.5517 21.7937 13.5959 21.7834C13.6065 21.7805 13.6175 21.7768 13.6283 21.7739C14.5503 21.5271 15.376 21.0071 15.9968 20.2822L16.0058 20.2731C16.0127 20.267 16.0188 20.2607 16.025 20.2539C16.7335 19.6392 17.2483 18.8322 17.5072 17.9307C17.5168 17.8972 17.5284 17.8639 17.537 17.8304C17.5445 17.798 17.5505 17.7654 17.5571 17.7329C18.2711 13.9814 13.6808 11.032 10.6597 9.61382C12.4925 8.86391 16.6354 9.24003 18.7188 9.15609C23.9695 9.20125 27.682 13.6675 27.2188 18.8808ZM23.9529 22.9686C23.4103 22.9679 22.8901 22.7521 22.5064 22.3684C22.1228 21.9847 21.9069 21.4646 21.9063 20.922V19.7811H23.0471C23.5897 19.7818 24.1099 19.9976 24.4936 20.3813C24.8773 20.7649 25.0931 21.2851 25.0938 21.8277V22.9686H23.9529ZM5.09405 19.337C4.7597 17.8585 4.84981 16.3157 5.35399 14.8862C5.9623 16.2539 6.73738 17.5411 7.66158 18.7186C6.75916 18.6083 5.84729 18.8279 5.09405 19.337ZM5.99835 10.2482C6.14933 10.1027 6.33207 9.9942 6.53215 9.9314C6.75714 9.86665 6.99008 9.83371 7.22421 9.83354C7.25353 9.83354 7.28009 9.82993 7.31006 9.83094C7.90882 9.85049 8.50159 9.95663 9.06993 10.1461C11.8171 11.1251 16.9366 13.9797 16.5276 17.4634C16.3069 18.7369 14.4674 20.5727 13.1938 20.7818C12.1092 20.9624 11.1334 20.5007 10.2223 19.8091C8.32241 18.2927 6.63553 15.5485 5.89975 13.3267C5.54423 12.185 5.49116 11.2475 5.74037 10.6478C5.80119 10.5 5.88863 10.3645 5.99835 10.2482ZM4.90626 21.8277C4.90856 21.3496 5.07765 20.8872 5.38437 20.5204C5.69108 20.1535 6.11619 19.9052 6.58639 19.8183C7.08774 19.7774 7.591 19.765 8.09376 19.7811V20.922C8.09055 21.2028 8.03046 21.4801 7.91714 21.7371C7.80381 21.9941 7.63958 22.2255 7.43437 22.4173C6.79129 23.0812 5.74409 22.9703 4.90626 22.9686V21.8277ZM22.5557 8.90343C20.3577 7.77208 16.5601 8.14826 14.1616 8.09359C13.9973 7.07981 14.1449 6.49745 14.3792 6.15379C14.4044 6.11694 14.4316 6.08148 14.4606 6.04754C14.4805 6.02443 14.5003 6.00143 14.5209 5.98097C14.5912 5.91263 14.6694 5.85279 14.7537 5.80269C14.8409 5.7536 14.9329 5.71336 15.0282 5.68257C15.1749 5.63931 15.3251 5.60851 15.477 5.5905C15.6307 5.5666 15.8083 5.59502 15.9687 5.56681C17.9908 5.62381 21.0602 7.25921 23.0632 9.14531C22.8963 9.05967 22.7272 8.97905 22.5557 8.90343ZM11.4172 4.69891C11.2808 4.69877 11.1497 4.75114 11.0509 4.84516C10.8979 5.0019 10.7017 5.10961 10.4874 5.1546C10.273 5.19959 10.0501 5.17983 9.84698 5.09784C9.64387 5.01585 9.46972 4.87532 9.34666 4.69411C9.2236 4.51291 9.15719 4.29921 9.15587 4.08017C9.15455 3.86114 9.21838 3.64666 9.33925 3.46398C9.46012 3.28131 9.63256 3.13869 9.83468 3.05426C10.0368 2.96983 10.2594 2.94739 10.4743 2.98979C10.6892 3.0322 10.8867 3.13754 11.0416 3.29242C11.14 3.39289 11.2743 3.4502 11.415 3.45178C11.5557 3.45337 11.6912 3.39909 11.7919 3.30086C11.8926 3.20264 11.9502 3.06848 11.9522 2.92782C11.9541 2.78715 11.9001 2.65147 11.8021 2.55053C11.6454 2.39752 11.5377 2.20137 11.4927 1.987C11.4477 1.77263 11.4675 1.54972 11.5495 1.34661C11.6315 1.14349 11.772 0.96934 11.9532 0.846281C12.1344 0.723222 12.3481 0.656814 12.5671 0.655495C12.7862 0.654176 13.0007 0.718006 13.1833 0.838874C13.366 0.959742 13.5086 1.13219 13.593 1.3343C13.6775 1.53642 13.6999 1.75907 13.6575 1.97396C13.6151 2.18886 13.5098 2.3863 13.3549 2.54118C13.2553 2.64081 13.1993 2.77592 13.1993 2.9168C13.1993 3.05768 13.2553 3.1928 13.3549 3.29242L14.723 4.6605C14.3588 4.78099 14.028 4.98499 13.7568 5.25618C13.4856 5.52738 13.2816 5.85826 13.1611 6.22237L11.793 4.8543C11.7437 4.80491 11.6851 4.76575 11.6206 4.73909C11.5561 4.71242 11.487 4.69876 11.4172 4.69891ZM2.9172 8.94891C2.78075 8.9487 2.64947 9.00108 2.55064 9.09516C2.39763 9.2519 2.20148 9.35961 1.98711 9.4046C1.77274 9.44959 1.54983 9.42983 1.34672 9.34784C1.1436 9.26585 0.969448 9.12532 0.846389 8.94411C0.72333 8.76291 0.656921 8.54921 0.655602 8.33018C0.654283 8.11114 0.718114 7.89666 0.838981 7.71398C0.959849 7.53131 1.1323 7.38869 1.33441 7.30426C1.53652 7.21983 1.75917 7.19739 1.97407 7.23979C2.18897 7.2822 2.3864 7.38754 2.54129 7.54242C2.63976 7.64289 2.77406 7.7002 2.91472 7.70179C3.05539 7.70337 3.19094 7.64909 3.29165 7.55087C3.39235 7.45264 3.44998 7.31848 3.4519 7.17781C3.45382 7.03715 3.39987 6.90147 3.30188 6.80053C3.14514 6.64752 3.03744 6.45137 2.99244 6.237C2.94745 6.02263 2.96721 5.79972 3.0492 5.59661C3.13119 5.39349 3.27172 5.21934 3.45293 5.09628C3.63413 4.97322 3.84783 4.90681 4.06687 4.90549C4.2859 4.90418 4.50039 4.96801 4.68306 5.08887C4.86573 5.20974 5.00835 5.38219 5.09278 5.5843C5.17721 5.78642 5.19965 6.00907 5.15725 6.22396C5.11484 6.43886 5.0095 6.6363 4.85462 6.79118C4.75501 6.89081 4.69905 7.02592 4.69905 7.1668C4.69905 7.30768 4.75501 7.4428 4.85462 7.54242L6.22269 8.9105C5.85473 9.02374 5.52004 9.22526 5.24781 9.49749C4.97558 9.76972 4.77406 10.1044 4.66082 10.4724L3.2928 9.10472C3.24355 9.05528 3.18501 9.01606 3.12055 8.98932C3.0561 8.96258 2.98699 8.94885 2.9172 8.94891ZM0.656256 20.922V19.7811H1.79712C2.33972 19.7818 2.8599 19.9976 3.24358 20.3813C3.62726 20.7649 3.8431 21.2851 3.84376 21.8277V22.9686H2.7029C2.1603 22.9679 1.64011 22.7521 1.25643 22.3684C0.872756 21.9847 0.656916 21.4646 0.656256 20.922ZM25.0938 28.8123C25.0937 28.9532 25.0377 29.0883 24.9381 29.1879C24.8385 29.2875 24.7034 29.3435 24.5625 29.3436H5.43751C5.29664 29.3435 5.16156 29.2875 5.06195 29.1879C4.96234 29.0883 4.90634 28.9532 4.90626 28.8123V28.2811H25.0938V28.8123ZM25.625 27.2186H4.37501C3.48105 27.2175 2.61732 26.8949 1.94154 26.3097C1.26575 25.7245 0.822999 24.9157 0.694134 24.0311H29.3059C29.177 24.9157 28.7343 25.7245 28.0585 26.3097C27.3827 26.8949 26.519 27.2175 25.625 27.2186ZM26.1563 22.9686V21.8277C26.1592 21.5453 26.2198 21.2664 26.3344 21.0082C26.4491 20.7501 26.6153 20.5181 26.8229 20.3265C27.4645 19.6704 28.511 19.7794 29.3438 19.7811V20.922C29.3431 21.4646 29.1273 21.9847 28.7436 22.3684C28.3599 22.7521 27.8397 22.9679 27.2971 22.9686H26.1563Z" fill="#A3A9BA"/>
    </svg>
    