<svg width="20" height="20" viewBox="0 0 20 20" fill="none" xmlns="http://www.w3.org/2000/svg">
    <path
        d="M19.2937 18.5874H1.41258V0.706288C1.41258 0.310078 1.1025 0 0.706288 0C0.310078 0 0 0.310078 0 0.706288V19.2937C0 19.6899 0.310078 20 0.706288 20H19.2937C19.6899 20 20 19.6899 20 19.2937C20 18.8975 19.6899 18.5874 19.2937 18.5874Z"
        fill="#A3A9BA" />
    <path
        d="M8.25147 15.8626V5.69896C8.25147 5.30275 7.9414 4.99268 7.54519 4.99268C7.14898 4.99268 6.8389 5.30275 6.8389 5.69896V15.8626C6.8389 16.2588 7.14898 16.5689 7.54519 16.5689C7.9414 16.5689 8.25147 16.2588 8.25147 15.8626Z"
        fill="#FF7269" />
    <path
        d="M4.84065 15.8626V5.69896C4.84065 5.30275 4.53057 4.99268 4.13436 4.99268C3.73815 4.99268 3.42807 5.30275 3.42807 5.69896V15.8626C3.42807 16.2588 3.73815 16.5689 4.13436 16.5689C4.53057 16.5689 4.84065 16.2588 4.84065 15.8626Z"
        fill="#FF7269" />
    <path
        d="M15.0731 15.8626V5.69896C15.0731 5.30275 14.7631 4.99268 14.3668 4.99268C13.9706 4.99268 13.6606 5.30275 13.6606 5.69896V15.8626C13.6606 16.2588 13.9706 16.5689 14.3668 16.5689C14.7631 16.5689 15.0731 16.2588 15.0731 15.8626Z"
        fill="#FF7269" />
    <path
        d="M18.484 15.8653V10.7834C18.484 10.3872 18.174 10.0771 17.7778 10.0771C17.3815 10.0771 17.0715 10.3872 17.0715 10.7834V15.8653C17.0715 16.2615 17.3815 16.5715 17.7778 16.5715C18.174 16.5715 18.484 16.2615 18.484 15.8653Z"
        fill="#FF7269" />
    <path
        d="M11.6625 15.8653V10.7834C11.6625 10.3872 11.3524 10.0771 10.9562 10.0771C10.56 10.0771 10.2499 10.3872 10.2499 10.7834V15.8653C10.2499 16.2615 10.56 16.5715 10.9562 16.5715C11.3524 16.5715 11.6625 16.2615 11.6625 15.8653Z"
        fill="#FF7269" />
</svg>
    