<svg width="14" height="14" viewBox="0 0 14 14" fill="none" xmlns="http://www.w3.org/2000/svg">
    <path fill-rule="evenodd" clip-rule="evenodd"
        d="M7.25 3.61475C4.93155 3.61475 3.05208 5.49422 3.05208 7.81266C3.05208 10.1311 4.93155 12.0106 7.25 12.0106C9.56844 12.0106 11.4479 10.1311 11.4479 7.81266C11.4479 5.49422 9.56844 3.61475 7.25 3.61475ZM2.23958 7.81266C2.23958 5.04549 4.48282 2.80225 7.25 2.80225C10.0172 2.80225 12.2604 5.04549 12.2604 7.81266C12.2604 10.5798 10.0172 12.8231 7.25 12.8231C4.48282 12.8231 2.23958 10.5798 2.23958 7.81266Z"
        fill="var(--text-secondary-color)" />
    <path fill-rule="evenodd" clip-rule="evenodd"
        d="M5.21875 1.5835C5.21875 1.35913 5.40063 1.17725 5.625 1.17725H8.875C9.09937 1.17725 9.28125 1.35913 9.28125 1.5835C9.28125 1.80786 9.09937 1.98975 8.875 1.98975H5.625C5.40063 1.98975 5.21875 1.80786 5.21875 1.5835Z"
        fill="var(--text-secondary-color)" />
    <path fill-rule="evenodd" clip-rule="evenodd"
        d="M7.25 5.23975C7.47437 5.23975 7.65625 5.42163 7.65625 5.646V7.81266C7.65625 8.03703 7.47437 8.21891 7.25 8.21891C7.02563 8.21891 6.84375 8.03703 6.84375 7.81266V5.646C6.84375 5.42163 7.02563 5.23975 7.25 5.23975Z"
        fill="var(--text-secondary-color)" />
    <path fill-rule="evenodd" clip-rule="evenodd"
        d="M6.84375 7.8125C6.84375 7.58813 7.02563 7.40625 7.25 7.40625H9.41667C9.64103 7.40625 9.82292 7.58813 9.82292 7.8125C9.82292 8.03687 9.64103 8.21875 9.41667 8.21875H7.25C7.02563 8.21875 6.84375 8.03687 6.84375 7.8125Z"
        fill="var(--text-secondary-color)" />
    <path fill-rule="evenodd" clip-rule="evenodd"
        d="M7.25 1.17725C7.47437 1.17725 7.65625 1.35913 7.65625 1.5835V2.66683C7.65625 2.8912 7.47437 3.07308 7.25 3.07308C7.02563 3.07308 6.84375 2.8912 6.84375 2.66683V1.5835C6.84375 1.35913 7.02563 1.17725 7.25 1.17725Z"
        fill="var(--text-secondary-color)" />
</svg>