<svg width="20" height="28" viewBox="0 0 20 28" fill="none" xmlns="http://www.w3.org/2000/svg">
    <path
        d="M10.0282 9.79566C12.5287 9.79566 14.5559 7.82668 14.5559 5.39783C14.5559 2.96898 12.5287 1 10.0282 1C7.52761 1 5.50049 2.96898 5.50049 5.39783C5.50049 7.82668 7.52761 9.79566 10.0282 9.79566Z"
        stroke="var(--text-secondary-color)" stroke-width="1.65388" stroke-linecap="round" stroke-linejoin="round" />
    <path
        d="M18.3631 22.6412C16.1898 27.383 10 26.9922 10 26.9922C10 26.9922 3.80617 27.3674 1.6369 22.6412C1.21707 21.732 1 20.7468 1 19.7504C1 18.7539 1.21707 17.7688 1.6369 16.8596C3.80617 12.1178 10 12.5086 10 12.5086C10 12.5086 16.1898 12.1334 18.3631 16.8596C18.7829 17.7688 19 18.7539 19 19.7504C19 20.7468 18.7829 21.732 18.3631 22.6412Z"
        stroke="var(--text-secondary-color)" stroke-width="1.65388" stroke-linecap="round" stroke-linejoin="round" />
</svg>
    